name jw_ngait_og1_new_v4_converted.mot
datacolumns 60
datarows 8
range 2.99000000 3.04830000
endheader
time	pelvis_rz	pelvis_rx	pelvis_ry	pelvis_tx	pelvis_ty	pelvis_tz	hip_flexion	hip_adduction	hip_rotation	knee_flexion	knee_adduction	knee_rotation	knee_tx	knee_ty	knee_tz	patfem_adduction	patfem_rotation	patfem_flexion	patfem_tx	patfem_ty	patfem_tz	ankle_angle	subtalar_angle	mtp_angle	hip_flexion_l	hip_adduction_l	hip_rotation_l	knee_flexion_l	knee_adduction_l	knee_rotation_l	knee_tx_l	knee_ty_l	knee_tz_l	patfem_adduction_l	patfem_rotation_l	patfem_flexion_l	patfem_tx_l	patfem_ty_l	patfem_tz_l	ankle_angle_l	subtalar_angle_l	mtp_angle_l	lumbar_extension	lumbar_bending	lumbar_rotation	arm_flex_r	arm_add_r	arm_rot_r	elbow_flex_r	pro_sup_r	wrist_flex_r	wrist_dev_r	arm_flex_l	arm_add_l	arm_rot_l	elbow_flex_l	pro_sup_l	wrist_flex_l	wrist_dev_l	
          2.99000000	          9.64119112	         -2.82766002	          0.58944661	          0.83511339	          0.98424826	          0.14214330	          8.41300480	          5.81136821	         -4.60037299	        -12.17753298	         -0.00000000	          0.00000000	          0.00000000	          0.04199999	          0.00000000	         -0.00000000	          0.00005428	         77.77684085	          0.00000000	          0.03999883	          0.00000000	          0.19737151	        -11.71238165	          0.00000000	         -3.52022362	         -8.07000664	         -6.43509465	        -61.19195831	          0.00000189	          0.00000000	         -0.00000000	          0.04190696	          0.00000000	         -0.00000000	          0.00005428	         28.76241553	          0.00000000	         -0.00000000	          0.00000000	        -20.81060348	          0.86468766	          0.00000000	        -25.99971885	          6.69325267	          0.38303953	         14.72873692	        -27.11379479	         86.66034443	         28.30711529	         89.99827303	          0.00000000	          0.00000000	         17.23701248	        -21.95362300	         65.63732994	         27.87255143	         89.99827303	          0.00000000	          0.00000000	
          2.99830000	          9.50569504	         -2.78704407	          0.87234716	          0.84470314	          0.98591399	          0.14271545	          7.64729021	          5.84512807	         -4.69889991	        -11.75397124	         -0.00000000	          0.00000000	          0.00000000	          0.04199999	          0.00000000	         -0.00000000	          0.00005428	         78.20040260	          0.00000000	          0.03999883	          0.00000000	          0.55349701	        -12.00804480	          0.00000000	         -1.15042185	         -7.76551646	         -5.13785522	        -63.45869478	          0.00000189	          0.00000000	         -0.00000000	          0.04190696	          0.00000000	         -0.00000000	          0.00005428	         26.49567905	          0.00000000	         -0.00000000	          0.00000000	        -18.63671610	          3.39787217	          0.00000000	        -26.06184253	          6.58214982	          0.14378363	         14.85691953	        -27.11142159	         86.67497568	         28.43933500	         89.99827303	          0.00000000	          0.00000000	         16.95420026	        -21.83526387	         65.94070313	         27.53403470	         89.99827303	          0.00000000	          0.00000000	
          3.00670000	          9.41210434	         -2.76817675	          1.22902638	          0.85429045	          0.98762131	          0.14327837	          6.79847525	          5.90879190	         -4.81245282	        -11.23478877	         -0.00000000	          0.00000000	          0.00000000	          0.04199999	          0.00000000	         -0.00000000	          0.00005428	         78.71958507	          0.00000000	          0.03999883	          0.00000000	          0.77363417	        -12.29528949	          0.00000000	          1.15339853	         -7.39770891	         -3.75172795	        -65.40743431	          0.00000189	          0.00000000	         -0.00000000	          0.04190696	          0.00000000	         -0.00000000	          0.00005428	         24.54693952	          0.00000000	         -0.00000000	          0.00000000	        -16.12389591	          6.07555405	          0.00000000	        -26.15491370	          6.49269636	         -0.06535569	         14.94389423	        -27.07407256	         86.79395364	         28.50385134	         89.99827303	          0.00000000	          0.00000000	         16.80495868	        -21.58462943	         66.68140995	         26.99828664	         89.99827303	          0.00000000	          0.00000000	
          3.01500000	          9.28886680	         -2.69797381	          1.52711571	          0.86395465	          0.98928477	          0.14386660	          5.87946823	          5.92861604	         -4.80527456	        -10.52265808	         -0.00000000	          0.00000000	          0.00000000	          0.04199999	          0.00000000	         -0.00000000	          0.00005428	         79.43171576	          0.00000000	          0.03999883	          0.00000000	          1.05535164	        -12.52170319	          0.00000000	          3.32272308	         -6.91000301	         -2.52327826	        -67.01257417	          0.00000189	          0.00000000	         -0.00000000	          0.04190696	          0.00000000	         -0.00000000	          0.00005428	         22.94179966	          0.00000000	         -0.00000000	          0.00000000	        -13.47877410	          7.95311217	          0.00000000	        -26.22022715	          6.33550362	         -0.23006771	         14.98274055	        -27.11459612	         86.66729895	         28.75889823	         89.99827303	          0.00000000	          0.00000000	         16.54643644	        -21.39402591	         67.08456377	         26.60622389	         89.99827303	          0.00000000	          0.00000000	
          3.02330000	          9.26335456	         -2.65173274	          1.86245037	          0.87359592	          0.99098206	          0.14445602	          4.88324717	          5.97970885	         -4.89529789	         -9.86549928	         -0.00000000	          0.00000000	          0.00000000	          0.04199999	          0.00000000	         -0.00000000	          0.00005428	         80.08887456	          0.00000000	          0.03999883	          0.00000000	          1.25503157	        -12.78744029	          0.00000000	          5.31967670	         -6.39609347	         -1.31959014	        -68.31033937	          0.00000189	          0.00000000	         -0.00000000	          0.04190696	          0.00000000	         -0.00000000	          0.00005428	         21.64403447	          0.00000000	         -0.00000000	          0.00000000	        -10.95388274	          9.58698465	          0.00000000	        -26.37732451	          6.19036902	         -0.33035815	         14.98514940	        -27.11810293	         86.67938416	         28.87998329	         89.99827303	          0.00000000	          0.00000000	         16.38024700	        -21.21835548	         67.54754539	         26.19618065	         89.99827303	          0.00000000	          0.00000000	
          3.03170000	          9.12759777	         -2.89388407	          2.24716753	          0.88319447	          0.99236787	          0.14513811	          4.03002092	          6.36696715	         -5.06821918	         -9.19568637	         -0.00000000	          0.00000000	          0.00000000	          0.04199999	          0.00000000	         -0.00000000	          0.00005428	         80.75868746	          0.00000000	          0.03999883	          0.00000000	          1.20813273	        -13.20147388	          0.00000000	          7.49579806	         -6.28671736	         -0.18416621	        -69.49546303	          0.00000189	          0.00000000	         -0.00000000	          0.04190696	          0.00000000	         -0.00000000	          0.00005428	         20.45891080	          0.00000000	         -0.00000000	          0.00000000	         -8.61340829	         10.82482222	          0.00000000	        -26.38403864	          6.37981637	         -0.20073926	         14.91666272	        -27.11138287	         86.63722061	         28.88012689	         89.99827303	          0.00000000	          0.00000000	         16.68808413	        -20.75804242	         70.06682934	         25.19591697	         89.99827303	          0.00000000	          0.00000000	
          3.04000000	          9.13394328	         -2.84826777	          2.54891711	          0.89287836	          0.99384409	          0.14583499	          2.94899388	          6.44172951	         -5.13375886	         -8.44263020	         -0.00000000	          0.00000000	          0.00000000	          0.04199999	          0.00000000	         -0.00000000	          0.00005428	         81.51174363	          0.00000000	          0.03999883	          0.00000000	          1.40272196	        -13.38386646	          0.00000000	          9.35436117	         -5.82928299	          0.71481293	        -70.30862990	          0.00000189	          0.00000000	         -0.00000000	          0.04190696	          0.00000000	         -0.00000000	          0.00005428	         19.64574394	          0.00000000	         -0.00000000	          0.00000000	         -6.33857870	         10.96529208	          0.00000000	        -26.56899879	          6.22829633	         -0.27601313	         14.93766837	        -27.09874146	         86.56991770	         29.02032520	         89.99827303	          0.00000000	          0.00000000	         16.36189521	        -20.66084786	         70.17375218	         25.04211363	         89.99827303	          0.00000000	          0.00000000	
          3.04830000	          9.03404251	         -2.78172189	          2.61990963	          0.90241662	          0.99514166	          0.14655855	          2.07651553	          6.47748335	         -5.04059477	         -7.86083865	         -0.00000000	          0.00000000	          0.00000000	          0.04199999	          0.00000000	         -0.00000000	          0.00005428	         82.09353519	          0.00000000	          0.03999883	          0.00000000	          1.78366638	        -13.40972876	          0.00000000	         11.20075382	         -5.40619807	          1.22780216	        -70.79235543	          0.00000189	          0.00000000	         -0.00000000	          0.04190696	          0.00000000	         -0.00000000	          0.00005428	         19.16201841	          0.00000000	         -0.00000000	          0.00000000	         -4.24016208	         10.17461616	          0.00000000	        -26.68506704	          5.98795252	         -0.10039724	         14.92717395	        -27.22142880	         86.27940809	         29.28125821	         89.99827303	          0.00000000	          0.00000000	         16.03908583	        -20.53112129	         70.06144334	         24.94175778	         89.99827303	          0.00000000	          0.00000000	
